Coordinates
version=1
nRows=54
nColumns=12
inDegrees=yes

Units are S.I. units (second, meters, Newtons, ...)
Angles are in degrees

endheader
time	SC_y	SC_z	SC_x	AC_y	AC_z	AC_x	GH_y	GH_z	GH_yy	EL_x	PS_y
       0.0              -25.75          34.74          33.64          30.21         -3.413          14.46         -33.29          49.24         -79.23          74.14          55.88
   0.02456              -25.75          34.74          33.65          30.21         -3.413          14.46         -33.29          49.24         -79.22          74.13          55.87
   0.04913              -25.76          34.74          33.65          30.21         -3.414          14.46         -33.29          49.25         -79.21          74.13          55.87
   0.07369              -25.76          34.73          33.66          30.21         -3.415          14.46         -33.29          49.25          -79.2          74.13          55.86
   0.09826              -25.76          34.73          33.66          30.21         -3.415          14.46          -33.3          49.25         -79.19          74.13          55.85
    0.1228              -25.77          34.72          33.67          30.21         -3.416          14.46          -33.3          49.26         -79.18          74.13          55.85
    0.1474              -25.77          34.71          33.68          30.21         -3.417          14.46          -33.3          49.26         -79.17          74.12          55.84
    0.1719              -25.78          34.71          33.69          30.21         -3.418          14.46          -33.3          49.26         -79.15          74.12          55.83
    0.1965              -25.78           34.7          33.69          30.21         -3.419          14.46         -33.31          49.27         -79.14          74.12          55.82
    0.2211              -25.79          34.69           33.7          30.21          -3.42          14.46         -33.31          49.27         -79.12          74.12          55.81
    0.2456              -25.79          34.69          33.71          30.22         -3.421          14.46         -33.31          49.28         -79.11          74.11           55.8
    0.2702               -25.8          34.68          33.72          30.22         -3.422          14.46         -33.32          49.28         -79.09          74.11          55.79
    0.2948              -25.81          34.67          33.73          30.22         -3.423          14.46         -33.32          49.29         -79.07          74.11          55.78
    0.3193              -25.82          34.66          33.74          30.22         -3.425          14.46         -33.33           49.3         -79.05           74.1          55.77
    0.3439              -25.82          34.65          33.76          30.22         -3.426          14.45         -33.33           49.3         -79.03           74.1          55.75
    0.3685              -25.83          34.64          33.77          30.22         -3.428          14.45         -33.34          49.31          -79.0          74.09          55.74
     0.393              -25.84          34.63          33.78          30.22         -3.429          14.45         -33.34          49.32         -78.98          74.09          55.72
    0.4176              -25.85          34.61           33.8          30.23         -3.431          14.45         -33.35          49.33         -78.95          74.08           55.7
    0.4422              -25.86           34.6          33.82          30.23         -3.433          14.45         -33.35          49.34         -78.92          74.08          55.68
    0.4667              -25.88          34.58          33.84          30.23         -3.435          14.45         -33.36          49.35         -78.88          74.07          55.66
    0.4913              -25.89          34.56          33.86          30.23         -3.438          14.45         -33.37          49.36         -78.85          74.06          55.64
    0.5158              -25.91          34.54          33.88          30.23         -3.441          14.44         -33.38          49.37         -78.81          74.06          55.61
    0.5404              -25.92          34.52          33.91          30.24         -3.444          14.44         -33.39          49.39         -78.76          74.05          55.58
     0.565              -25.94           34.5          33.93          30.24         -3.447          14.44          -33.4           49.4         -78.71          74.04          55.55
    0.5895              -25.96          34.47          33.97          30.24         -3.451          14.44         -33.41          49.42         -78.66          74.03          55.52
    0.6141              -25.98          34.44           34.0          30.25         -3.455          14.44         -33.42          49.44         -78.59          74.02          55.48
    0.6387              -26.01          34.41          34.04          30.25         -3.459          14.43         -33.44          49.46         -78.52           74.0          55.44
    0.6632              -26.04          34.37          34.08          30.26         -3.464          14.43         -33.46          49.49         -78.44          73.99          55.39
    0.6878              -26.07          34.33          34.13          30.26          -3.47          14.43         -33.48          49.52         -78.36          73.97          55.33
    0.7124              -26.11          34.28          34.19          30.27         -3.477          14.42          -33.5          49.55         -78.25          73.95          55.27
    0.7369              -26.15          34.23          34.25          30.28         -3.484          14.42         -33.52          49.58         -78.14          73.93           55.2
    0.7615               -26.2          34.17          34.33          30.29         -3.493          14.41         -33.55          49.63         -78.01          73.91          55.11
     0.786              -26.26          34.09          34.41           30.3         -3.503           14.4         -33.58          49.67         -77.85          73.88          55.02
    0.8106              -26.32          34.01          34.51          30.31         -3.515           14.4         -33.62          49.73         -77.68          73.85          54.91
    0.8352               -26.4          33.91          34.63          30.32         -3.528          14.39         -33.67          49.79         -77.47          73.81          54.78
    0.8597              -26.49          33.79          34.77          30.34         -3.544          14.38         -33.72          49.87         -77.23          73.76          54.62
    0.8843               -26.6          33.66          34.93          30.35         -3.563          14.37         -33.78          49.96         -76.94          73.71          54.44
    0.9089              -26.73          33.49          35.12          30.38         -3.586          14.35         -33.86          50.07         -76.59          73.65          54.22
    0.9334              -26.88          33.29          35.36           30.4         -3.614          14.33         -33.95          50.21         -76.17          73.57          53.96
     0.958              -27.07          33.05          35.65          30.44         -3.648          14.31         -34.06          50.37         -75.65          73.47          53.64
    0.9826              -27.31          32.75          36.01          30.48         -3.689          14.28         -34.19          50.57         -75.02          73.35          53.24
     1.007               -27.6          32.37          36.45          30.53         -3.741          14.25         -34.36          50.82         -74.22          73.21          52.74
     1.032              -27.97           31.9          37.01          30.59         -3.807          14.21         -34.58          51.13         -73.23          73.02          52.12
     1.056              -28.44           31.3          37.72          30.67          -3.89          14.15         -34.85          51.53         -71.96          72.79          51.32
     1.081              -29.04          30.53          38.63          30.78         -3.996          14.08          -35.2          52.04         -70.34          72.49          50.31
     1.105              -29.81          29.54           39.8          30.91         -4.133          13.99         -35.65           52.7         -68.25           72.1           49.0
      1.13              -30.79          28.28          41.29          31.08         -4.307          13.88         -36.22          53.54         -65.59          71.61          47.33
     1.155              -32.03           26.7          43.17          31.29         -4.527          13.74         -36.94          54.59         -62.25          70.99          45.24
     1.179              -33.53          24.76          45.45          31.55         -4.794          13.56         -37.82          55.88         -58.17          70.23          42.68
     1.204              -35.28          22.52          48.11          31.86         -5.104          13.36         -38.84          57.37         -53.44          69.35          39.72
     1.228              -37.17           20.1          50.97          32.18         -5.439          13.14         -39.94          58.98         -48.33           68.4          36.52
     1.253              -39.06          17.67          53.84          32.51         -5.775          12.92         -41.04          60.59         -43.21          67.46          33.31
     1.277              -40.81          15.43           56.5          32.81         -6.085          12.72         -42.06          62.08         -38.49          66.58          30.35
     1.302              -42.32           13.5          58.78          33.07         -6.352          12.55         -42.94          63.36         -34.41          65.82           27.8
